<svg version="1.1" xmlns="http://www.w3.org/2000/svg" xmlns:xlink="http://www.w3.org/1999/xlink" width="800" height="400" viewBox="0,0,800,400"><defs><radialGradient cx="399.99999" cy="199.99997" r="399.953" gradientUnits="userSpaceOnUse" id="color-1"><stop offset="0" stop-color="#13d69c"/><stop offset="1" stop-color="#0a7455"/></radialGradient><radialGradient cx="395.49549" cy="200.00001" r="200.17501" gradientUnits="userSpaceOnUse" id="color-2"><stop offset="0" stop-color="#0c8a64"/><stop offset="1" stop-color="#0c8a64" stop-opacity="0"/></radialGradient><radialGradient cx="390.58449" cy="197.65055" r="171.91083" gradientUnits="userSpaceOnUse" id="color-3"><stop offset="0" stop-color="#0a7353"/><stop offset="1" stop-color="#0a7353" stop-opacity="0"/></radialGradient><linearGradient x1="285.20148" y1="92.26753" x2="495.96751" y2="303.03358" gradientUnits="userSpaceOnUse" id="color-4"><stop offset="0" stop-color="#12b886"/><stop offset="1" stop-color="#0ca678"/></linearGradient></defs><g transform="translate(-0.047,0.17502)"><g stroke="none" stroke-miterlimit="10"><path d="M0.047,398.19819v-396.39639h800v396.39641z" fill="url(#color-1)" stroke-width="0"/><path d="M595.67051,200.00001c0,110.55361 -89.62141,200.17501 -200.17501,200.17501c-110.55361,0 -200.17502,-89.62141 -200.17502,-200.17501c0,-110.5536 89.62141,-200.17502 200.17502,-200.17502c110.55361,0 200.17501,89.62141 200.17501,200.17502z" fill="url(#color-2)" stroke-width="0"/><path d="M562.49532,197.65055c0,94.94373 -76.96711,171.91083 -171.91083,171.91083c-94.94373,0 -171.91083,-76.96711 -171.91083,-171.91083c0,-94.94372 76.9671,-171.91083 171.91083,-171.91083c94.94373,0 171.91083,76.96711 171.91083,171.91083z" fill="url(#color-3)" stroke-width="0"/><path d="M337.89298,303.03358c-29.1007,0 -52.69151,-23.59081 -52.69151,-52.69151v-105.38301c0,-29.10072 23.59081,-52.69151 52.69151,-52.69151h105.38301c29.10073,0 52.69151,23.59079 52.69151,52.69151v105.38301c0,29.1007 -23.59078,52.69151 -52.69151,52.69151z" fill="url(#color-4)" stroke-width="1"/><g fill="#ffffff" stroke-width="1"><path d="M337.89299,250.34206c-7.27517,0 -13.17288,-5.89772 -13.17288,-13.17288v-79.03725c0,-7.27516 5.89771,-13.17288 13.17288,-13.17288v0c7.27517,0 13.17288,5.89772 13.17288,13.17288v79.03725c0,7.27516 -5.89772,13.17288 -13.17288,13.17288z"><animate attributeName="d" values="M337.89299,250.34206c-7.27517,0 -13.17288,-5.89772 -13.17288,-13.17288v-79.03725c0,-7.27516 5.89771,-13.17288 13.17288,-13.17288v0c7.27517,0 13.17288,5.89772 13.17288,13.17288v79.03725c0,7.27516 -5.89772,13.17288 -13.17288,13.17288z;M337.89299,273.34206c-7.27517,0 -13.17288,-5.89772 -13.17288,-13.17288v-125.03725c0,-7.27516 5.89771,-13.17288 13.17288,-13.17288v0c7.27517,0 13.17288,5.89772 13.17288,13.17288v125.03725c0,7.27516 -5.89772,13.17288 -13.17288,13.17288z;M337.89299,227.34206c-7.27517,0 -13.17288,-5.89772 -13.17288,-13.17288v-33.03725c0,-7.27516 5.89771,-13.17288 13.17288,-13.17288v0c7.27517,0 13.17288,5.89772 13.17288,13.17288v33.03725c0,7.27516 -5.89772,13.17288 -13.17288,13.17288z;M337.89299,250.34206c-7.27517,0 -13.17288,-5.89772 -13.17288,-13.17288v-79.03725c0,-7.27516 5.89771,-13.17288 13.17288,-13.17288v0c7.27517,0 13.17288,5.89772 13.17288,13.17288v79.03725c0,7.27516 -5.89772,13.17288 -13.17288,13.17288z" dur="2s" repeatCount="indefinite" calcMode="spline" keySplines="0.4 0 0.2 1;0.4 0 0.2 1;0.4 0 0.2 1"/></path><path d="M390.58449,276.68781c-7.27517,0 -13.17288,-5.89768 -13.17288,-13.17288v-131.72877c0,-7.27517 5.89772,-13.17287 13.17288,-13.17287v0c7.27517,0 13.17287,5.89768 13.17287,13.17287v131.72877c0,7.27516 -5.89771,13.17288 -13.17287,13.17288z"><animate attributeName="d" values="M390.58449,276.68781c-7.27517,0 -13.17288,-5.89768 -13.17288,-13.17288v-131.72877c0,-7.27517 5.89772,-13.17287 13.17288,-13.17287v0c7.27517,0 13.17287,5.89768 13.17287,13.17287v131.72877c0,7.27516 -5.89771,13.17288 -13.17287,13.17288z;M390.58449,303.68781c-7.27517,0 -13.17288,-5.89768 -13.17288,-13.17288v-185.72877c0,-7.27517 5.89772,-13.17287 13.17288,-13.17287v0c7.27517,0 13.17287,5.89768 13.17287,13.17287v185.72877c0,7.27516 -5.89771,13.17288 -13.17287,13.17288z;M390.58449,249.68781c-7.27517,0 -13.17288,-5.89768 -13.17288,-13.17288v-77.72877c0,-7.27517 5.89772,-13.17287 13.17288,-13.17287v0c7.27517,0 13.17287,5.89768 13.17287,13.17287v77.72877c0,7.27516 -5.89771,13.17288 -13.17287,13.17288z;M390.58449,276.68781c-7.27517,0 -13.17288,-5.89768 -13.17288,-13.17288v-131.72877c0,-7.27517 5.89772,-13.17287 13.17288,-13.17287v0c7.27517,0 13.17287,5.89768 13.17287,13.17287v131.72877c0,7.27516 -5.89771,13.17288 -13.17287,13.17288z" dur="2.5s" repeatCount="indefinite" begin="0.3s" calcMode="spline" keySplines="0.4 0 0.2 1;0.4 0 0.2 1;0.4 0 0.2 1"/></path><path d="M443.276,237.16918c-7.27519,0 -13.17288,-5.8977 -13.17288,-13.17286v-52.69151c0,-7.27516 5.8977,-13.17287 13.17288,-13.17287v0c7.27519,0 13.17288,5.8977 13.17288,13.17287v52.69151c0,7.27516 -5.8977,13.17286 -13.17288,13.17286z"><animate attributeName="d" values="M443.276,237.16918c-7.27519,0 -13.17288,-5.8977 -13.17288,-13.17286v-52.69151c0,-7.27516 5.8977,-13.17287 13.17288,-13.17287v0c7.27519,0 13.17288,5.8977 13.17288,13.17287v52.69151c0,7.27516 -5.8977,13.17286 -13.17288,13.17286z;M443.276,260.16918c-7.27519,0 -13.17288,-5.8977 -13.17288,-13.17286v-98.69151c0,-7.27516 5.8977,-13.17287 13.17288,-13.17287v0c7.27519,0 13.17288,5.8977 13.17288,13.17287v98.69151c0,7.27516 -5.8977,13.17286 -13.17288,13.17286z;M443.276,214.16918c-7.27519,0 -13.17288,-5.8977 -13.17288,-13.17286v-6.69151c0,-7.27516 5.8977,-13.17287 13.17288,-13.17287v0c7.27519,0 13.17288,5.8977 13.17288,13.17287v6.69151c0,7.27516 -5.8977,13.17286 -13.17288,13.17286z;M443.276,237.16918c-7.27519,0 -13.17288,-5.8977 -13.17288,-13.17286v-52.69151c0,-7.27516 5.8977,-13.17287 13.17288,-13.17287v0c7.27519,0 13.17288,5.8977 13.17288,13.17287v52.69151c0,7.27516 -5.8977,13.17286 -13.17288,13.17286z" dur="1.8s" repeatCount="indefinite" begin="0.6s" calcMode="spline" keySplines="0.4 0 0.2 1;0.4 0 0.2 1;0.4 0 0.2 1"/></path></g></g></g></svg>