<svg version="1.1" xmlns="http://www.w3.org/2000/svg" xmlns:xlink="http://www.w3.org/1999/xlink" width="163.94324" height="167.9203" viewBox="0,0,163.94324,167.9203"><defs><linearGradient x1="240" y1="172.64318" x2="240" y2="240.39498" gradientUnits="userSpaceOnUse" id="color-1"><stop offset="0" stop-color="#898989"/><stop offset="1" stop-color="#ffffff"/></linearGradient></defs><g transform="translate(-158.02838,-96.03985)"><g stroke="none" stroke-miterlimit="10"><path d="M158.02838,180c0,-46.36991 36.69995,-83.96015 81.97162,-83.96015c45.27168,0 81.97162,37.59024 81.97162,83.96015c0,46.36991 -36.69995,83.96015 -81.97162,83.96015c-45.27167,0 -81.97162,-37.59024 -81.97162,-83.96015z" fill="#4d4d4d" stroke-width="0"/><path d="M192.09224,220.55094c0,-26.45872 21.44903,-47.90776 47.90776,-47.90776c26.45873,0 47.90776,21.44904 47.90776,47.90776c0,26.45872 -95.81552,26.45872 -95.81552,0z" fill="url(#color-1)" stroke-width="NaN"/><path d="M262.73474,144.57212c0,13.78895 -11.17815,24.9671 -24.9671,24.9671c-13.78895,0 -24.96709,-11.17815 -24.96709,-24.96709c0,-13.78895 11.17815,-24.9671 24.9671,-24.9671c13.78895,0 24.9671,11.17815 24.9671,24.9671z" fill="#d4d4d4" stroke-width="0"/></g></g></svg>
