<svg version="1.1" xmlns="http://www.w3.org/2000/svg" xmlns:xlink="http://www.w3.org/1999/xlink" width="48.4" height="48.4" viewBox="0,0,48.4,48.4">
  <defs>
    <linearGradient x1="240.00002" y1="184.07832" x2="240.00002" y2="201.80338" gradientUnits="userSpaceOnUse" id="color-1">
      <stop offset="0" stop-color="#ffffff"/>
      <stop offset="1" stop-color="#000000" stop-opacity="0.53333"/>
    </linearGradient>
  </defs>
  <g transform="translate(-215.8,-155.8)">
    <g stroke="none" stroke-miterlimit="10">
      <path d="M215.8,204.2v-48.4h48.4v48.4z" fill="#000000" fill-rule="nonzero" stroke-width="0"/>
      <path d="M247.00483,191.58044h-3.39463l6.64235,11.45756c-0.15779,0.99269 -19.06055,1.08114 -19.18086,0.3l5.24235,-11.75756h-3.31573c-0.9448,0 -1.40044,-0.92759 -0.74756,-1.46462l7.00029,-5.7934c0.41422,-0.32548 1.08683,-0.32548 1.47933,0l7.02397,5.7934c0.65093,0.53703 0.17754,1.46462 -0.74955,1.46462" fill="url(#color-1)" fill-rule="evenodd" stroke-width="1"/>
      <path d="M245.89492,157.8582c1.21103,0.01114 2.63211,0.42232 3.66962,1.19687c1.59414,1.20106 2.40253,4.14294 2.03035,5.70606l0.00974,-0.04178c-0.0635,0.27785 -0.11722,0.61593 -0.16296,0.98438c0.05553,0.34739 0.1069,0.62532 0.1069,1.26646c0,1.25245 -0.72184,3.22508 -2.07763,4.26182c-1.35576,1.0368 -2.635,1.13973 -3.5245,1.13973c-0.09304,0 -0.19357,-0.00513 -0.29791,-0.01326c0.0003,0.07332 0.00073,0.13953 0.00101,0.21491c0.24052,0.1429 0.479,0.30739 0.71154,0.50322c1.53861,1.29569 1.92845,3.17524 1.92845,4.29747c0,1.87894 -1.76625,4.44043 -3.40519,5.14284l-0.08237,0.03527l-0.08356,0.03214c-1.77118,0.68123 -2.44383,0.424 -3.2883,0.34724l-0.02131,-0.00194l-0.02126,-0.00212c-0.03624,-0.0036 -0.18496,-0.00846 -0.38152,-0.00614c-0.70597,0.08602 -1.46463,0.14965 -2.31197,0.19762l-0.00248,0.00027h-0.00248c-0.72365,0.0402 -1.45144,0.0499 -2.40667,-0.16718c-0.95517,-0.21708 -2.41736,-0.74752 -3.4634,-2.31659c-0.97815,-1.46723 -0.93912,-4.37605 -0.09317,-5.75073l0.01878,-0.03049l0.01922,-0.0302c0.26022,-0.40887 0.55489,-0.75274 0.86501,-1.04531c-1.13227,-0.26066 -2.07825,-0.89481 -2.59799,-1.42942c-0.67201,-0.69119 -0.93623,-1.25104 -1.14478,-1.72027c-0.4171,-0.93846 -0.55269,-1.63812 -0.69728,-2.43887l-0.01687,-0.09348l-0.01314,-0.09409c-0.07451,-0.53409 -0.14906,-1.07743 -0.22355,-1.62051c0.04012,0.06496 0.07204,0.0206 0.05939,-0.01012l-0.06225,-0.15129l-0.03304,-0.0992c-0.01449,-0.10569 -0.02898,-0.20852 -0.04344,-0.31457l-0.03639,-0.26708c0.00549,0.1702 0.01339,0.31823 0.02466,0.43008c-0.01329,-0.03215 -0.03212,-0.08052 -0.10426,-0.27326c-0.04871,-0.13008 -0.10544,-0.27977 -0.17929,-0.52036c-0.07385,-0.2406 -0.24514,-0.36185 -0.24514,-1.56329c0,-0.8437 0.28289,-2.23581 1.18726,-3.32551l-0.00048,-0.00345l0.00348,-0.00027c0.02011,-0.02418 0.03881,-0.04902 0.05954,-0.07289c0.95538,-1.10012 2.11563,-1.48857 2.73985,-1.63484c1.24844,-0.2926 1.31276,-0.18501 1.14295,-0.15819l0.36811,-0.05813h0.37269c0.44054,0 0.6133,0.02502 0.76857,0.05016h5.82527c1.19595,-0.05412 2.34677,-0.1544 3.45675,-0.29546c0.15018,-0.04332 0.29193,-0.07986 0.42962,-0.11428l0.34632,-0.08656l0.35539,-0.03388c0.16873,-0.01608 0.34404,-0.0232 0.52409,-0.02155zM245.90578,160.23247c-0.11119,-0.00056 -0.22041,0.00417 -0.32672,0.01429l-0.17765,0.01691l-0.17316,0.04329c-0.15944,0.03986 -0.31225,0.07973 -0.47932,0.13728c-1.26106,0.1673 -2.56664,0.28334 -3.92019,0.34334h-6.05286c-0.00843,-0.00074 -0.00782,0.00015 -0.01732,-0.0012c-0.16404,-0.0234 -0.27256,-0.04896 -0.58658,-0.04896h-0.18634l-0.18401,0.0291c-0.56851,0.08975 -1.20198,0.25023 -1.84534,0.7751c-0.64338,0.52487 -1.11182,1.53727 -1.11182,2.34784c0,0.67814 0.13447,1.01441 0.27231,1.42791l0.02589,0.07758l0.03113,0.07561c0.00399,0.00966 0.00345,0.01702 0.0066,0.02663c-0.00199,-0.02742 -0.00217,-0.0842 -0.00368,-0.12184l0.01546,0.11354c0.10061,0.73776 0.20124,1.4672 0.30187,2.18835l0.00654,0.04708l0.00843,0.04668c0.1266,0.70121 0.25504,1.27671 0.53044,1.89635c0.13769,0.30984 0.30479,0.64617 0.67735,1.02938c0.37256,0.38319 1.10218,0.83218 1.9315,0.83218c0.44795,0 0.99993,-0.02473 1.67937,-0.4324c0.2336,-0.14014 0.45421,-0.35294 0.64791,-0.59879c0.00457,0.21101 0.00585,0.41393 0.0119,0.62851l0.00006,0.00291l0.00011,0.00286c0.04674,1.52704 0.04482,2.70144 0.00705,3.48399c-0.09724,0.02315 -0.19372,0.04355 -0.29277,0.07339c-0.64348,0.19394 -1.4287,0.59121 -1.95134,1.41245l-0.00964,0.01512l-0.00938,0.01525c-0.4898,0.79597 -0.50932,2.35484 0.04659,3.18874c0.57318,0.85976 1.39829,1.17822 2.01377,1.3181c0.61548,0.13988 1.16112,0.14443 1.74856,0.1118l0.00125,-0.00006l0.00122,-0.00005c0.85759,-0.04853 1.60017,-0.11449 2.26548,-0.19894c0.34192,-0.01053 0.61921,-0.00248 0.79853,0.01546l0.01064,0.00107l0.01065,0.00097c0.69799,0.06345 1.22652,0.18366 2.22074,-0.19873l0.04183,-0.01605l0.04115,-0.01765c0.99497,-0.42642 1.96583,-1.83665 1.96583,-2.95997c0,-0.71571 -0.23459,-1.76623 -1.08326,-2.48091c-0.49312,-0.41526 -1.0402,-0.60301 -1.54904,-0.67285v-0.08024c0,-1.65225 -0.00624,-2.94835 -0.01901,-3.8989c-0.0105,-0.7799 -0.01107,-1.22794 -0.04561,-1.67085c0.64535,1.02111 1.93121,1.42656 2.72876,1.42656c0.5868,0 1.33297,-0.07865 2.08187,-0.65133c0.74893,-0.5727 1.14533,-1.6405 1.14533,-2.37537c0,-0.43057 -0.04444,-0.67405 -0.10145,-1.05425l-0.00453,-0.03026l-0.00534,-0.03016c-0.01232,-0.06984 -0.01447,-0.11259 -0.01574,-0.13372c0.05809,-0.56634 0.13965,-1.08003 0.24284,-1.53158l-0.00488,0.0209c0.22573,-0.94807 -0.21093,-2.53285 -1.11614,-3.23427c-0.62948,-0.48714 -1.48273,-0.74331 -2.24583,-0.74722zM238.51579,174.45194c-0.01157,0.00005 -0.02284,0.00066 -0.03437,0.00077c0.01531,-0.00286 0.02249,-0.00317 0.03437,-0.00442zM245.65724,175.97016c0,-0.08004 0.03692,-0.25102 0,-0.52652zM243.26552,175.97297v-0.16718c0.03419,0.14481 0,0.19465 0,0.16718z" fill="#ffffff" fill-rule="nonzero" stroke-width="1.01684"/>
      <path d="M246.93892,163.66678c-0.13371,0.58491 -0.23403,1.22002 -0.30094,1.9053c-0.01662,0.18379 0.00011,0.41775 0.05018,0.7019c0.05018,0.33423 0.07527,0.56819 0.07527,0.7019c0,0.43448 -0.28415,0.65172 -0.85245,0.65172c-0.36768,0 -0.61001,-0.10856 -0.72699,-0.32569c-0.01673,-0.36768 -0.00837,-0.86907 0.02509,-1.50417c0.03346,-0.7522 0.05018,-1.25359 0.05018,-1.50417c-0.01684,0 -0.04193,-0.01673 -0.07527,-0.05018c-1.55435,0.0668 -3.01676,0.16706 -4.38721,0.30077c-0.03334,0.21735 -0.03334,0.48477 0,0.80227l0.10037,0.90264c-0.06691,0.518 -0.10037,1.28677 -0.10037,2.30627c0.05018,0.43448 0.07527,2.29796 0.07527,5.59044v1.8302c0,0.28404 0.04176,0.48455 0.12529,0.60153h1.55436c0.6351,-0.08353 0.95265,0.18389 0.95265,0.80227c0,0.36767 -0.17547,0.62673 -0.52642,0.77717c-0.21724,0.08353 -0.60164,0.10026 -1.15322,0.05018c-0.33423,-0.03346 -0.72699,-0.04188 -1.17831,-0.02526c-0.61837,0.08364 -1.37046,0.15055 -2.25625,0.20074c-0.90252,0.05007 -1.45404,-0.07527 -1.65455,-0.37604c-0.13371,-0.20063 -0.13371,-0.40956 0,-0.6268c0.23397,-0.36768 0.84398,-0.55151 1.83003,-0.55151c0.51811,0 0.77717,-0.14202 0.77717,-0.42606c0,-0.15044 -0.00836,-0.29251 -0.02509,-0.42622c0,-0.41786 0.00842,-0.78554 0.02526,-1.10304c0.05007,-0.90264 0.05007,-2.17284 0,-3.81061c-0.06691,-2.37335 -0.04188,-4.50425 0.07511,-6.39271l-0.07528,-0.07528c-0.51811,0.03346 -1.48744,0.02509 -2.90797,-0.02509c-0.06691,0 -0.57666,0.03346 -1.52926,0.10037c0.23397,1.60431 0.36768,2.74911 0.40114,3.43439l-0.05018,0.67697c-0.01684,0.2507 -0.22577,0.37605 -0.62679,0.37605c-0.3175,0 -0.58492,-0.6017 -0.80227,-1.8051c-0.10026,-0.71851 -0.20051,-1.44551 -0.30076,-2.18098c0,-0.11698 -0.05849,-0.31755 -0.17548,-0.6017c-0.10026,-0.30088 -0.15038,-0.52654 -0.15038,-0.67698c0,-0.41775 0.31755,-0.67675 0.95265,-0.77701c0.05007,0 0.1336,0.00836 0.25059,0.02509c0.11698,0.01673 0.20057,0.02509 0.25075,0.02509h6.21724c1.53762,-0.06691 3.02507,-0.20063 4.46232,-0.40114c0.10037,-0.05018 0.25081,-0.10037 0.45132,-0.15055c0.35095,-0.03334 0.65183,0.0503 0.90264,0.25092c0.25058,0.18379 0.33411,0.45115 0.25059,0.8021z" fill="#ffffff" fill-rule="nonzero" stroke-width="6.21"/>
    </g>
  </g>
</svg>
